<svg width="135" height="135" viewBox="0 0 135 135" fill="none" xmlns="http://www.w3.org/2000/svg">
<rect x="18" y="17" width="4.16667" height="4.16667" fill="#CBD5E0"/>
<rect x="22.167" y="17" width="4.16667" height="4.16667" fill="#CBD5E0"/>
<rect x="26.333" y="17" width="4.16667" height="4.16667" fill="#CBD5E0"/>
<rect x="30.5" y="17" width="4.16667" height="4.16667" fill="#CBD5E0"/>
<rect x="34.667" y="17" width="4.16667" height="4.16667" fill="#CBD5E0"/>
<rect x="38.833" y="17" width="4.16667" height="4.16667" fill="#CBD5E0"/>
<rect x="43" y="17" width="4.16667" height="4.16667" fill="#CBD5E0"/>
<rect x="47.167" y="17" width="4.16667" height="4.16667" fill="#CBD5E0"/>
<rect x="51.333" y="17" width="4.16667" height="4.16667" fill="#CBD5E0"/>
<rect x="55.5" y="17" width="4.16667" height="4.16667" fill="#CBD5E0"/>
<rect x="59.667" y="17" width="4.16667" height="4.16667" fill="#CBD5E0"/>
<rect x="63.833" y="17" width="4.16667" height="4.16667" fill="#CBD5E0"/>
<rect x="68" y="17" width="4.16667" height="4.16667" fill="#CBD5E0"/>
<rect x="72.167" y="17" width="4.16667" height="4.16667" fill="#CBD5E0"/>
<rect x="76.333" y="17" width="4.16667" height="4.16667" fill="#CBD5E0"/>
<rect x="80.5" y="17" width="4.16667" height="4.16667" fill="#CBD5E0"/>
<rect x="84.667" y="17" width="4.16667" height="4.16667" fill="#CBD5E0"/>
<rect x="88.833" y="17" width="4.16667" height="4.16667" fill="#CBD5E0"/>
<rect x="93" y="17" width="4.16667" height="4.16667" fill="#CBD5E0"/>
<rect x="97.167" y="17" width="4.16667" height="4.16667" fill="#CAD6E0"/>
<rect x="18" y="21.1666" width="4.16667" height="4.16667" fill="#CBD5E0"/>
<rect x="22.167" y="21.1666" width="4.16667" height="4.16667" fill="#CBD5E0"/>
<rect x="26.333" y="21.1666" width="4.16667" height="4.16667" fill="#CBD5E0"/>
<rect x="30.5" y="21.1666" width="4.16667" height="4.16667" fill="#CBD5E0"/>
<rect x="34.667" y="21.1666" width="4.16667" height="4.16667" fill="#CBD5E0"/>
<rect x="38.833" y="21.1666" width="4.16667" height="4.16667" fill="#CBD5E0"/>
<rect x="43" y="21.1666" width="4.16667" height="4.16667" fill="#CBD5E0"/>
<rect x="47.167" y="21.1666" width="4.16667" height="4.16667" fill="#CBD5E0"/>
<rect x="51.333" y="21.1666" width="4.16667" height="4.16667" fill="#CBD5E0"/>
<rect x="55.5" y="21.1666" width="4.16667" height="4.16667" fill="#CBD5E0"/>
<rect x="59.667" y="21.1666" width="4.16667" height="4.16667" fill="#CBD5E0"/>
<rect x="63.833" y="21.1666" width="4.16667" height="4.16667" fill="#CBD5E0"/>
<rect x="68" y="21.1666" width="4.16667" height="4.16667" fill="#CBD5E0"/>
<rect x="72.167" y="21.1666" width="4.16667" height="4.16667" fill="#CBD5E0"/>
<rect x="76.333" y="21.1666" width="4.16667" height="4.16667" fill="#CBD5E0"/>
<rect x="80.5" y="21.1666" width="4.16667" height="4.16667" fill="#CBD5E0"/>
<rect x="84.667" y="21.1666" width="4.16667" height="4.16667" fill="#CBD5E0"/>
<rect x="88.833" y="21.1666" width="4.16667" height="4.16667" fill="#CBD5E0"/>
<rect x="93" y="21.1666" width="4.16667" height="4.16667" fill="#CBD5E0"/>
<rect x="97.167" y="21.1666" width="4.16667" height="4.16667" fill="#CBD5E0"/>
<rect x="101.333" y="21.1666" width="4.16667" height="4.16667" fill="#CBD5E0"/>
<rect x="105.5" y="21.1666" width="4.16667" height="4.16667" fill="#CBD5E0"/>
<rect x="18" y="25.3334" width="4.16667" height="4.16667" fill="#CBD5E0"/>
<rect x="22.167" y="25.3334" width="4.16667" height="4.16667" fill="#CBD5E0"/>
<rect x="26.333" y="25.3334" width="4.16667" height="4.16667" fill="#CBD5E0"/>
<rect x="30.5" y="25.3334" width="4.16667" height="4.16667" fill="#CBD5E0"/>
<rect x="34.667" y="25.3334" width="4.16667" height="4.16667" fill="#CBD5E0"/>
<rect x="38.833" y="25.3334" width="4.16667" height="4.16667" fill="#CBD5E0"/>
<rect x="43" y="25.3334" width="4.16667" height="4.16667" fill="#CBD5E0"/>
<rect x="47.167" y="25.3334" width="4.16667" height="4.16667" fill="#CBD5E0"/>
<rect x="51.333" y="25.3334" width="4.16667" height="4.16667" fill="#CBD5E0"/>
<rect x="55.5" y="25.3334" width="4.16667" height="4.16667" fill="#CBD5E0"/>
<rect x="59.667" y="25.3334" width="4.16667" height="4.16667" fill="#CBD5E0"/>
<rect x="63.833" y="25.3334" width="4.16667" height="4.16667" fill="#CBD5E0"/>
<rect x="68" y="25.3334" width="4.16667" height="4.16667" fill="#CBD5E0"/>
<rect x="72.167" y="25.3334" width="4.16667" height="4.16667" fill="#CBD5E0"/>
<rect x="76.333" y="25.3334" width="4.16667" height="4.16667" fill="#CBD5E0"/>
<rect x="80.5" y="25.3334" width="4.16667" height="4.16667" fill="#CBD5E0"/>
<rect x="84.667" y="25.3334" width="4.16667" height="4.16667" fill="#CBD5E0"/>
<rect x="88.833" y="25.3334" width="4.16667" height="4.16667" fill="#CBD5E0"/>
<rect x="93" y="25.3334" width="4.16667" height="4.16667" fill="#CBD5E0"/>
<rect x="97.167" y="25.3334" width="4.16667" height="4.16667" fill="#CBD5E0"/>
<rect x="101.333" y="25.3334" width="4.16667" height="4.16667" fill="#CBD5E0"/>
<rect x="105.5" y="25.3334" width="4.16667" height="4.16667" fill="#CBD5E0"/>
<rect x="109.667" y="25.3334" width="4.16667" height="4.16667" fill="#CBD5E0"/>
<rect x="18" y="29.5" width="4.16667" height="4.16667" fill="#CBD5E0"/>
<rect x="22.167" y="29.5" width="4.16667" height="4.16667" fill="#CBD5E0"/>
<rect x="84.667" y="29.5" width="4.16667" height="4.16667" fill="#CBD5E0"/>
<rect x="88.833" y="29.5" width="4.16667" height="4.16667" fill="#CBD5E0"/>
<rect x="101.333" y="29.5" width="4.16667" height="4.16667" fill="#CBD5E0"/>
<rect x="105.5" y="29.5" width="4.16667" height="4.16667" fill="#CBD5E0"/>
<rect x="109.667" y="29.5" width="4.16667" height="4.16667" fill="#CBD5E0"/>
<rect x="113.833" y="29.5" width="4.16667" height="4.16667" fill="#C8D6DF"/>
<rect x="18" y="33.6666" width="4.16667" height="4.16667" fill="#CBD5E0"/>
<rect x="22.167" y="33.6666" width="4.16667" height="4.16667" fill="#CBD5E0"/>
<rect x="84.667" y="33.6666" width="4.16667" height="4.16667" fill="#CBD5E0"/>
<rect x="88.833" y="33.6666" width="4.16667" height="4.16667" fill="#CBD5E0"/>
<rect x="105.5" y="33.6666" width="4.16667" height="4.16667" fill="#CBD5E0"/>
<rect x="109.667" y="33.6666" width="4.16667" height="4.16667" fill="#CBD5E0"/>
<rect x="113.833" y="33.6666" width="4.16667" height="4.16667" fill="#CBD5E0"/>
<rect x="18" y="37.8334" width="4.16667" height="4.16667" fill="#CBD5E0"/>
<rect x="22.167" y="37.8334" width="4.16667" height="4.16667" fill="#CBD5E0"/>
<rect x="84.667" y="37.8334" width="4.16667" height="4.16667" fill="#CBD5E0"/>
<rect x="88.833" y="37.8334" width="4.16667" height="4.16667" fill="#CBD5E0"/>
<rect x="105.5" y="37.8334" width="4.16667" height="4.16667" fill="#CBD5E0"/>
<rect x="109.667" y="37.8334" width="4.16667" height="4.16667" fill="#CBD5E0"/>
<rect x="113.833" y="37.8334" width="4.16667" height="4.16667" fill="#CBD5E0"/>
<rect x="18" y="42" width="4.16667" height="4.16667" fill="#CBD5E0"/>
<rect x="22.167" y="42" width="4.16667" height="4.16667" fill="#CBD5E0"/>
<rect x="84.667" y="42" width="4.16667" height="4.16667" fill="#CBD5E0"/>
<rect x="88.833" y="42" width="4.16667" height="4.16667" fill="#CBD5E0"/>
<rect x="101.333" y="42" width="4.16667" height="4.16667" fill="#CCD7E1"/>
<rect x="105.5" y="42" width="4.16667" height="4.16667" fill="#CBD5E0"/>
<rect x="109.667" y="42" width="4.16667" height="4.16667" fill="#CBD5E0"/>
<rect x="113.833" y="42" width="4.16667" height="4.16667" fill="#CCD5E1"/>
<rect x="18" y="46.1666" width="4.16667" height="4.16667" fill="#CBD5E0"/>
<rect x="22.167" y="46.1666" width="4.16667" height="4.16667" fill="#CBD5E0"/>
<rect x="26.333" y="46.1666" width="4.16667" height="4.16667" fill="#CBD5E0"/>
<rect x="30.5" y="46.1666" width="4.16667" height="4.16667" fill="#CBD5E0"/>
<rect x="34.667" y="46.1666" width="4.16667" height="4.16667" fill="#CBD5E0"/>
<rect x="38.833" y="46.1666" width="4.16667" height="4.16667" fill="#CBD5E0"/>
<rect x="43" y="46.1666" width="4.16667" height="4.16667" fill="#CBD5E0"/>
<rect x="47.167" y="46.1666" width="4.16667" height="4.16667" fill="#CBD5E0"/>
<rect x="51.333" y="46.1666" width="4.16667" height="4.16667" fill="#CBD5E0"/>
<rect x="55.5" y="46.1666" width="4.16667" height="4.16667" fill="#CBD5E0"/>
<rect x="59.667" y="46.1666" width="4.16667" height="4.16667" fill="#CBD5E0"/>
<rect x="63.833" y="46.1666" width="4.16667" height="4.16667" fill="#CBD5E0"/>
<rect x="68" y="46.1666" width="4.16667" height="4.16667" fill="#CBD5E0"/>
<rect x="72.167" y="46.1666" width="4.16667" height="4.16667" fill="#CBD5E0"/>
<rect x="76.333" y="46.1666" width="4.16667" height="4.16667" fill="#CBD5E0"/>
<rect x="80.5" y="46.1666" width="4.16667" height="4.16667" fill="#CBD5E0"/>
<rect x="84.667" y="46.1666" width="4.16667" height="4.16667" fill="#CBD5E0"/>
<rect x="88.833" y="46.1666" width="4.16667" height="4.16667" fill="#CBD5E0"/>
<rect x="93" y="46.1666" width="4.16667" height="4.16667" fill="#CBD5E0"/>
<rect x="97.167" y="46.1666" width="4.16667" height="4.16667" fill="#CBD5E0"/>
<rect x="101.333" y="46.1666" width="4.16667" height="4.16667" fill="#CBD5E0"/>
<rect x="105.5" y="46.1666" width="4.16667" height="4.16667" fill="#CBD5E0"/>
<rect x="109.667" y="46.1666" width="4.16667" height="4.16667" fill="#CBD5E0"/>
<rect x="18" y="50.3334" width="4.16667" height="4.16667" fill="#CBD5E0"/>
<rect x="22.167" y="50.3334" width="4.16667" height="4.16667" fill="#CBD5E0"/>
<rect x="26.333" y="50.3334" width="4.16667" height="4.16667" fill="#CBD5E0"/>
<rect x="30.5" y="50.3334" width="4.16667" height="4.16667" fill="#CBD5E0"/>
<rect x="34.667" y="50.3334" width="4.16667" height="4.16667" fill="#CBD5E0"/>
<rect x="38.833" y="50.3334" width="4.16667" height="4.16667" fill="#CBD5E0"/>
<rect x="43" y="50.3334" width="4.16667" height="4.16667" fill="#CBD5E0"/>
<rect x="47.167" y="50.3334" width="4.16667" height="4.16667" fill="#CBD5E0"/>
<rect x="51.333" y="50.3334" width="4.16667" height="4.16667" fill="#CBD5E0"/>
<rect x="55.5" y="50.3334" width="4.16667" height="4.16667" fill="#CBD5E0"/>
<rect x="59.667" y="50.3334" width="4.16667" height="4.16667" fill="#CBD5E0"/>
<rect x="63.833" y="50.3334" width="4.16667" height="4.16667" fill="#CBD5E0"/>
<rect x="68" y="50.3334" width="4.16667" height="4.16667" fill="#CBD5E0"/>
<rect x="72.167" y="50.3334" width="4.16667" height="4.16667" fill="#CBD5E0"/>
<rect x="76.333" y="50.3334" width="4.16667" height="4.16667" fill="#CBD5E0"/>
<rect x="80.5" y="50.3334" width="4.16667" height="4.16667" fill="#CBD5E0"/>
<rect x="84.667" y="50.3334" width="4.16667" height="4.16667" fill="#CBD5E0"/>
<rect x="88.833" y="50.3334" width="4.16667" height="4.16667" fill="#CBD5E0"/>
<rect x="93" y="50.3334" width="4.16667" height="4.16667" fill="#CBD5E0"/>
<rect x="97.167" y="50.3334" width="4.16667" height="4.16667" fill="#CBD5E0"/>
<rect x="101.333" y="50.3334" width="4.16667" height="4.16667" fill="#CBD5E0"/>
<rect x="105.5" y="50.3334" width="4.16667" height="4.16667" fill="#CBD5E0"/>
<rect x="18" y="54.5" width="4.16667" height="4.16667" fill="#CBD5E0"/>
<rect x="22.167" y="54.5" width="4.16667" height="4.16667" fill="#CBD5E0"/>
<rect x="26.333" y="54.5" width="4.16667" height="4.16667" fill="#CBD5E0"/>
<rect x="30.5" y="54.5" width="4.16667" height="4.16667" fill="#CBD5E0"/>
<rect x="34.667" y="54.5" width="4.16667" height="4.16667" fill="#CBD5E0"/>
<rect x="38.833" y="54.5" width="4.16667" height="4.16667" fill="#CBD5E0"/>
<rect x="43" y="54.5" width="4.16667" height="4.16667" fill="#CBD5E0"/>
<rect x="47.167" y="54.5" width="4.16667" height="4.16667" fill="#CBD5E0"/>
<rect x="51.333" y="54.5" width="4.16667" height="4.16667" fill="#CBD5E0"/>
<rect x="55.5" y="54.5" width="4.16667" height="4.16667" fill="#CBD5E0"/>
<rect x="59.667" y="54.5" width="4.16667" height="4.16667" fill="#CBD5E0"/>
<rect x="63.833" y="54.5" width="4.16667" height="4.16667" fill="#CBD5E0"/>
<rect x="68" y="54.5" width="4.16667" height="4.16667" fill="#CBD5E0"/>
<rect x="72.167" y="54.5" width="4.16667" height="4.16667" fill="#CBD5E0"/>
<rect x="76.333" y="54.5" width="4.16667" height="4.16667" fill="#CBD5E0"/>
<rect x="80.5" y="54.5" width="4.16667" height="4.16667" fill="#CBD5E0"/>
<rect x="84.667" y="54.5" width="4.16667" height="4.16667" fill="#CBD5E0"/>
<rect x="88.833" y="54.5" width="4.16667" height="4.16667" fill="#CBD5E0"/>
<rect x="93" y="54.5" width="4.16667" height="4.16667" fill="#CBD5E0"/>
<rect x="97.167" y="54.5" width="4.16667" height="4.16667" fill="#CBD5E0"/>
<rect x="101.333" y="54.5" width="4.16667" height="4.16667" fill="#CCD5DF"/>
<rect x="18" y="58.6666" width="4.16667" height="4.16667" fill="#CBD5E0"/>
<rect x="22.167" y="58.6666" width="4.16667" height="4.16667" fill="#CBD5E0"/>
<rect x="26.333" y="58.6666" width="4.16667" height="4.16667" fill="#CBD5E0"/>
<rect x="30.5" y="58.6666" width="4.16667" height="4.16667" fill="#CBD5E0"/>
<rect x="34.667" y="58.6666" width="4.16667" height="4.16667" fill="#CBD5E0"/>
<rect x="38.833" y="58.6666" width="4.16667" height="4.16667" fill="#CBD5E0"/>
<rect x="43" y="58.6666" width="4.16667" height="4.16667" fill="#CBD5E0"/>
<rect x="47.167" y="58.6666" width="4.16667" height="4.16667" fill="#CBD5E0"/>
<rect x="51.333" y="58.6666" width="4.16667" height="4.16667" fill="#CBD5E0"/>
<rect x="55.5" y="58.6666" width="4.16667" height="4.16667" fill="#CBD5E0"/>
<rect x="59.667" y="58.6666" width="4.16667" height="4.16667" fill="#CBD5E0"/>
<rect x="63.833" y="58.6666" width="4.16667" height="4.16667" fill="#CBD5E0"/>
<rect x="68" y="58.6666" width="4.16667" height="4.16667" fill="#CBD5E0"/>
<rect x="72.167" y="58.6666" width="4.16667" height="4.16667" fill="#CBD5E0"/>
<rect x="76.333" y="58.6666" width="4.16667" height="4.16667" fill="#CBD5E0"/>
<rect x="80.5" y="58.6666" width="4.16667" height="4.16667" fill="#CBD5E0"/>
<rect x="84.667" y="58.6666" width="4.16667" height="4.16667" fill="#CBD5E0"/>
<rect x="88.833" y="58.6666" width="4.16667" height="4.16667" fill="#CBD5E0"/>
<rect x="18" y="62.8334" width="4.16667" height="4.16667" fill="#CBD5E0"/>
<rect x="22.167" y="62.8334" width="4.16667" height="4.16667" fill="#CBD5E0"/>
<rect x="26.333" y="62.8334" width="4.16667" height="4.16667" fill="#CBD5E0"/>
<rect x="30.5" y="62.8334" width="4.16667" height="4.16667" fill="#CBD5E0"/>
<rect x="34.667" y="62.8334" width="4.16667" height="4.16667" fill="#CBD5E0"/>
<rect x="38.833" y="62.8334" width="4.16667" height="4.16667" fill="#CBD5E0"/>
<rect x="43" y="62.8334" width="4.16667" height="4.16667" fill="#CBD5E0"/>
<rect x="47.167" y="62.8334" width="4.16667" height="4.16667" fill="#CBD5E0"/>
<rect x="51.333" y="62.8334" width="4.16667" height="4.16667" fill="#CBD5E0"/>
<rect x="55.5" y="62.8334" width="4.16667" height="4.16667" fill="#CBD5E0"/>
<rect x="59.667" y="62.8334" width="4.16667" height="4.16667" fill="#CBD5E0"/>
<rect x="63.833" y="62.8334" width="4.16667" height="4.16667" fill="#CBD5E0"/>
<rect x="68" y="62.8334" width="4.16667" height="4.16667" fill="#CBD5E0"/>
<rect x="72.167" y="62.8334" width="4.16667" height="4.16667" fill="#CBD5E0"/>
<rect x="76.333" y="62.8334" width="4.16667" height="4.16667" fill="#CBD5E0"/>
<rect x="80.5" y="62.8334" width="4.16667" height="4.16667" fill="#CBD5E0"/>
<rect x="84.667" y="62.8334" width="4.16667" height="4.16667" fill="#CBD5E0"/>
<rect x="88.833" y="62.8334" width="4.16667" height="4.16667" fill="#CBD5E0"/>
<rect x="18" y="67" width="4.16667" height="4.16667" fill="#CBD5E0"/>
<rect x="22.167" y="67" width="4.16667" height="4.16667" fill="#CBD5E0"/>
<rect x="26.333" y="67" width="4.16667" height="4.16667" fill="#CBD5E0"/>
<rect x="30.5" y="67" width="4.16667" height="4.16667" fill="#CBD5E0"/>
<rect x="34.667" y="67" width="4.16667" height="4.16667" fill="#CBD5E0"/>
<rect x="38.833" y="67" width="4.16667" height="4.16667" fill="#CBD5E0"/>
<rect x="43" y="67" width="4.16667" height="4.16667" fill="#CBD5E0"/>
<rect x="47.167" y="67" width="4.16667" height="4.16667" fill="#CBD5E0"/>
<rect x="51.333" y="67" width="4.16667" height="4.16667" fill="#CBD5E0"/>
<rect x="55.5" y="67" width="4.16667" height="4.16667" fill="#CBD5E0"/>
<rect x="59.667" y="67" width="4.16667" height="4.16667" fill="#CBD5E0"/>
<rect x="63.833" y="67" width="4.16667" height="4.16667" fill="#CBD5E0"/>
<rect x="68" y="67" width="4.16667" height="4.16667" fill="#CBD5E0"/>
<rect x="72.167" y="67" width="4.16667" height="4.16667" fill="#CBD5E0"/>
<rect x="76.333" y="67" width="4.16667" height="4.16667" fill="#CBD5E0"/>
<rect x="80.5" y="67" width="4.16667" height="4.16667" fill="#CBD5E0"/>
<rect x="84.667" y="67" width="4.16667" height="4.16667" fill="#CBD5E0"/>
<rect x="88.833" y="67" width="4.16667" height="4.16667" fill="#CBD5E0"/>
<rect x="18" y="71.1666" width="4.16667" height="4.16667" fill="#CBD5E0"/>
<rect x="22.167" y="71.1666" width="4.16667" height="4.16667" fill="#CBD5E0"/>
<rect x="26.333" y="71.1666" width="4.16667" height="4.16667" fill="#CBD5E0"/>
<rect x="30.5" y="71.1666" width="4.16667" height="4.16667" fill="#CBD5E0"/>
<rect x="34.667" y="71.1666" width="4.16667" height="4.16667" fill="#CBD5E0"/>
<rect x="38.833" y="71.1666" width="4.16667" height="4.16667" fill="#CBD5E0"/>
<rect x="43" y="71.1666" width="4.16667" height="4.16667" fill="#CBD5E0"/>
<rect x="47.167" y="71.1666" width="4.16667" height="4.16667" fill="#CBD5E0"/>
<rect x="51.333" y="71.1666" width="4.16667" height="4.16667" fill="#CBD5E0"/>
<rect x="55.5" y="71.1666" width="4.16667" height="4.16667" fill="#CBD5E0"/>
<rect x="59.667" y="71.1666" width="4.16667" height="4.16667" fill="#CBD5E0"/>
<rect x="63.833" y="71.1666" width="4.16667" height="4.16667" fill="#CBD5E0"/>
<rect x="68" y="71.1666" width="4.16667" height="4.16667" fill="#CBD5E0"/>
<rect x="72.167" y="71.1666" width="4.16667" height="4.16667" fill="#CBD5E0"/>
<rect x="76.333" y="71.1666" width="4.16667" height="4.16667" fill="#CBD5E0"/>
<rect x="80.5" y="71.1666" width="4.16667" height="4.16667" fill="#CBD5E0"/>
<rect x="84.667" y="71.1666" width="4.16667" height="4.16667" fill="#CBD5E0"/>
<rect x="88.833" y="71.1666" width="4.16667" height="4.16667" fill="#CBD5E0"/>
<rect x="18" y="75.3334" width="4.16667" height="4.16667" fill="#CBD5E0"/>
<rect x="22.167" y="75.3334" width="4.16667" height="4.16667" fill="#CBD5E0"/>
<rect x="26.333" y="75.3334" width="4.16667" height="4.16667" fill="#CBD5E0"/>
<rect x="30.5" y="75.3334" width="4.16667" height="4.16667" fill="#CBD5E0"/>
<rect x="34.667" y="75.3334" width="4.16667" height="4.16667" fill="#CBD5E0"/>
<rect x="38.833" y="75.3334" width="4.16667" height="4.16667" fill="#CBD5E0"/>
<rect x="43" y="75.3334" width="4.16667" height="4.16667" fill="#CBD5E0"/>
<rect x="47.167" y="75.3334" width="4.16667" height="4.16667" fill="#CBD5E0"/>
<rect x="51.333" y="75.3334" width="4.16667" height="4.16667" fill="#CBD5E0"/>
<rect x="55.5" y="75.3334" width="4.16667" height="4.16667" fill="#CBD5E0"/>
<rect x="59.667" y="75.3334" width="4.16667" height="4.16667" fill="#CBD5E0"/>
<rect x="63.833" y="75.3334" width="4.16667" height="4.16667" fill="#CBD5E0"/>
<rect x="68" y="75.3334" width="4.16667" height="4.16667" fill="#CBD5E0"/>
<rect x="72.167" y="75.3334" width="4.16667" height="4.16667" fill="#CBD5E0"/>
<rect x="76.333" y="75.3334" width="4.16667" height="4.16667" fill="#CBD5E0"/>
<rect x="80.5" y="75.3334" width="4.16667" height="4.16667" fill="#CBD5E0"/>
<rect x="84.667" y="75.3334" width="4.16667" height="4.16667" fill="#CBD5E0"/>
<rect x="88.833" y="75.3334" width="4.16667" height="4.16667" fill="#CBD5E0"/>
<rect x="22.167" y="79.5" width="4.16667" height="4.16667" fill="#CBD5E0"/>
<rect x="26.333" y="79.5" width="4.16667" height="4.16667" fill="#CBD5E0"/>
<rect x="30.5" y="79.5" width="4.16667" height="4.16667" fill="#CBD5E0"/>
<rect x="34.667" y="79.5" width="4.16667" height="4.16667" fill="#CBD5E0"/>
<rect x="38.833" y="79.5" width="4.16667" height="4.16667" fill="#CBD5E0"/>
<rect x="43" y="79.5" width="4.16667" height="4.16667" fill="#CBD5E0"/>
<rect x="47.167" y="79.5" width="4.16667" height="4.16667" fill="#CBD5E0"/>
<rect x="51.333" y="79.5" width="4.16667" height="4.16667" fill="#CBD5E0"/>
<rect x="55.5" y="79.5" width="4.16667" height="4.16667" fill="#CBD5E0"/>
<rect x="59.667" y="79.5" width="4.16667" height="4.16667" fill="#CBD5E0"/>
<rect x="63.833" y="79.5" width="4.16667" height="4.16667" fill="#CBD5E0"/>
<rect x="68" y="79.5" width="4.16667" height="4.16667" fill="#CBD5E0"/>
<rect x="72.167" y="79.5" width="4.16667" height="4.16667" fill="#CBD5E0"/>
<rect x="76.333" y="79.5" width="4.16667" height="4.16667" fill="#CBD5E0"/>
<rect x="80.5" y="79.5" width="4.16667" height="4.16667" fill="#CBD5E0"/>
<rect x="84.667" y="79.5" width="4.16667" height="4.16667" fill="#CBD5E0"/>
<rect x="22.167" y="83.6666" width="4.16667" height="4.16667" fill="#CBD5E0"/>
<rect x="26.333" y="83.6666" width="4.16667" height="4.16667" fill="#CBD5E0"/>
<rect x="30.5" y="83.6666" width="4.16667" height="4.16667" fill="#CBD5E0"/>
<rect x="34.667" y="83.6666" width="4.16667" height="4.16667" fill="#CBD5E0"/>
<rect x="38.833" y="83.6666" width="4.16667" height="4.16667" fill="#CBD5E0"/>
<rect x="43" y="83.6666" width="4.16667" height="4.16667" fill="#CBD5E0"/>
<rect x="47.167" y="83.6666" width="4.16667" height="4.16667" fill="#CBD5E0"/>
<rect x="51.333" y="83.6666" width="4.16667" height="4.16667" fill="#CBD5E0"/>
<rect x="55.5" y="83.6666" width="4.16667" height="4.16667" fill="#CBD5E0"/>
<rect x="59.667" y="83.6666" width="4.16667" height="4.16667" fill="#CBD5E0"/>
<rect x="63.833" y="83.6666" width="4.16667" height="4.16667" fill="#CBD5E0"/>
<rect x="68" y="83.6666" width="4.16667" height="4.16667" fill="#CBD5E0"/>
<rect x="72.167" y="83.6666" width="4.16667" height="4.16667" fill="#CBD5E0"/>
<rect x="76.333" y="83.6666" width="4.16667" height="4.16667" fill="#CBD5E0"/>
<rect x="80.5" y="83.6666" width="4.16667" height="4.16667" fill="#CBD5E0"/>
<rect x="84.667" y="83.6666" width="4.16667" height="4.16667" fill="#CBD5E0"/>
<rect x="26.333" y="87.8334" width="4.16667" height="4.16667" fill="#CBD5E0"/>
<rect x="30.5" y="87.8334" width="4.16667" height="4.16667" fill="#CBD5E0"/>
<rect x="34.667" y="87.8334" width="4.16667" height="4.16667" fill="#CBD5E0"/>
<rect x="38.833" y="87.8334" width="4.16667" height="4.16667" fill="#CBD5E0"/>
<rect x="43" y="87.8334" width="4.16667" height="4.16667" fill="#CBD5E0"/>
<rect x="47.167" y="87.8334" width="4.16667" height="4.16667" fill="#CBD5E0"/>
<rect x="51.333" y="87.8334" width="4.16667" height="4.16667" fill="#CBD5E0"/>
<rect x="55.5" y="87.8334" width="4.16667" height="4.16667" fill="#CBD5E0"/>
<rect x="59.667" y="87.8334" width="4.16667" height="4.16667" fill="#CBD5E0"/>
<rect x="63.833" y="87.8334" width="4.16667" height="4.16667" fill="#CBD5E0"/>
<rect x="68" y="87.8334" width="4.16667" height="4.16667" fill="#CBD5E0"/>
<rect x="72.167" y="87.8334" width="4.16667" height="4.16667" fill="#CBD5E0"/>
<rect x="76.333" y="87.8334" width="4.16667" height="4.16667" fill="#CBD5E0"/>
<rect x="80.5" y="87.8334" width="4.16667" height="4.16667" fill="#CBD5E0"/>
<rect x="30.5" y="92" width="4.16667" height="4.16667" fill="#CAD6E0"/>
<rect x="34.667" y="92" width="4.16667" height="4.16667" fill="#CBD5E0"/>
<rect x="38.833" y="92" width="4.16667" height="4.16667" fill="#CBD5E0"/>
<rect x="43" y="92" width="4.16667" height="4.16667" fill="#CBD5E0"/>
<rect x="47.167" y="92" width="4.16667" height="4.16667" fill="#CBD5E0"/>
<rect x="51.333" y="92" width="4.16667" height="4.16667" fill="#CBD5E0"/>
<rect x="55.5" y="92" width="4.16667" height="4.16667" fill="#CBD5E0"/>
<rect x="59.667" y="92" width="4.16667" height="4.16667" fill="#CBD5E0"/>
<rect x="63.833" y="92" width="4.16667" height="4.16667" fill="#CBD5E0"/>
<rect x="68" y="92" width="4.16667" height="4.16667" fill="#CBD5E0"/>
<rect x="72.167" y="92" width="4.16667" height="4.16667" fill="#CBD5E0"/>
<rect x="76.333" y="92" width="4.16667" height="4.16667" fill="#CBD5E0"/>
<rect x="38.833" y="96.1666" width="4.16667" height="4.16667" fill="#CBD5E0"/>
<rect x="43" y="96.1666" width="4.16667" height="4.16667" fill="#CBD5E0"/>
<rect x="47.167" y="96.1666" width="4.16667" height="4.16667" fill="#CBD5E0"/>
<rect x="51.333" y="96.1666" width="4.16667" height="4.16667" fill="#CBD5E0"/>
<rect x="55.5" y="96.1666" width="4.16667" height="4.16667" fill="#CBD5E0"/>
<rect x="59.667" y="96.1666" width="4.16667" height="4.16667" fill="#CBD5E0"/>
<rect x="63.833" y="96.1666" width="4.16667" height="4.16667" fill="#CBD5E0"/>
<rect x="68" y="96.1666" width="4.16667" height="4.16667" fill="#CBD5E0"/>
<rect x="18" y="108.667" width="4.16667" height="4.16667" fill="#CBD5E0"/>
<rect x="22.167" y="108.667" width="4.16667" height="4.16667" fill="#CBD5E0"/>
<rect x="26.333" y="108.667" width="4.16667" height="4.16667" fill="#CBD5E0"/>
<rect x="30.5" y="108.667" width="4.16667" height="4.16667" fill="#CBD5E0"/>
<rect x="34.667" y="108.667" width="4.16667" height="4.16667" fill="#CBD5E0"/>
<rect x="38.833" y="108.667" width="4.16667" height="4.16667" fill="#CBD5E0"/>
<rect x="43" y="108.667" width="4.16667" height="4.16667" fill="#CBD5E0"/>
<rect x="47.167" y="108.667" width="4.16667" height="4.16667" fill="#CBD5E0"/>
<rect x="51.333" y="108.667" width="4.16667" height="4.16667" fill="#CBD5E0"/>
<rect x="55.5" y="108.667" width="4.16667" height="4.16667" fill="#CBD5E0"/>
<rect x="59.667" y="108.667" width="4.16667" height="4.16667" fill="#CBD5E0"/>
<rect x="63.833" y="108.667" width="4.16667" height="4.16667" fill="#CBD5E0"/>
<rect x="68" y="108.667" width="4.16667" height="4.16667" fill="#CBD5E0"/>
<rect x="72.167" y="108.667" width="4.16667" height="4.16667" fill="#CBD5E0"/>
<rect x="76.333" y="108.667" width="4.16667" height="4.16667" fill="#CBD5E0"/>
<rect x="80.5" y="108.667" width="4.16667" height="4.16667" fill="#CBD5E0"/>
<rect x="84.667" y="108.667" width="4.16667" height="4.16667" fill="#CBD5E0"/>
<rect x="88.833" y="108.667" width="4.16667" height="4.16667" fill="#CBD5E0"/>
<rect x="93" y="108.667" width="4.16667" height="4.16667" fill="#CBD5E0"/>
<rect x="97.167" y="108.667" width="4.16667" height="4.16667" fill="#CBD5E0"/>
<rect x="101.333" y="108.667" width="4.16667" height="4.16667" fill="#CBD5E0"/>
<rect x="18" y="112.833" width="4.16667" height="4.16667" fill="#CBD5E0"/>
<rect x="22.167" y="112.833" width="4.16667" height="4.16667" fill="#CBD5E0"/>
<rect x="26.333" y="112.833" width="4.16667" height="4.16667" fill="#CBD5E0"/>
<rect x="30.5" y="112.833" width="4.16667" height="4.16667" fill="#CBD5E0"/>
<rect x="34.667" y="112.833" width="4.16667" height="4.16667" fill="#CBD5E0"/>
<rect x="38.833" y="112.833" width="4.16667" height="4.16667" fill="#CBD5E0"/>
<rect x="43" y="112.833" width="4.16667" height="4.16667" fill="#CBD5E0"/>
<rect x="47.167" y="112.833" width="4.16667" height="4.16667" fill="#CBD5E0"/>
<rect x="51.333" y="112.833" width="4.16667" height="4.16667" fill="#CBD5E0"/>
<rect x="55.5" y="112.833" width="4.16667" height="4.16667" fill="#CBD5E0"/>
<rect x="59.667" y="112.833" width="4.16667" height="4.16667" fill="#CBD5E0"/>
<rect x="63.833" y="112.833" width="4.16667" height="4.16667" fill="#CBD5E0"/>
<rect x="68" y="112.833" width="4.16667" height="4.16667" fill="#CBD5E0"/>
<rect x="72.167" y="112.833" width="4.16667" height="4.16667" fill="#CBD5E0"/>
<rect x="76.333" y="112.833" width="4.16667" height="4.16667" fill="#CBD5E0"/>
<rect x="80.5" y="112.833" width="4.16667" height="4.16667" fill="#CBD5E0"/>
<rect x="84.667" y="112.833" width="4.16667" height="4.16667" fill="#CBD5E0"/>
<rect x="88.833" y="112.833" width="4.16667" height="4.16667" fill="#CBD5E0"/>
<rect x="93" y="112.833" width="4.16667" height="4.16667" fill="#CBD5E0"/>
<rect x="97.167" y="112.833" width="4.16667" height="4.16667" fill="#CBD5E0"/>
<rect x="101.333" y="112.833" width="4.16667" height="4.16667" fill="#CBD5E0"/>
</svg>
